<?xml version="1.0" encoding="UTF-8"?>
<svg viewBox="0 0 60 60" xmlns="http://www.w3.org/2000/svg">
 <path transform="translate(0 -1.2724)" d="m57.004 31.498a26.721 26.721 0 1 0 -53.441 0 26.721 26.721 0 1 0 53.441 0z" fill="#4c4c4c" fill-rule="evenodd" stroke="#333" stroke-width="3.125"/>
 <path transform="matrix(4.1914 0 0 4.1914 -40.496 -29.395)" d="m16.93285,15.61826 1.65234-4.40039c.125-.30469.25391-.5293.38672-.67383 .13672-.14453.36914-.2168.69727-.2168 .17578,0 .33594.04492.48047.13476 .14844.08594.26367.20313.3457.35156 .08203.14453.12305.30273.12305.47461 0,.12891-.06836.36524-.20508.70899l-2.42578,6.05859c-.13281.34375-.26758.60352-.4043.7793s-.36133.26367-.67383.26367c-.22266,0-.40039-.04688-.5332-.14063-.13281-.09766-.23242-.20703-.29883-.32813s-.15039-.3125-.25195-.57422l-2.37305-6.05859c-.13672-.33984-.20508-.57617-.20508-.70899 0-.17188.04101-.33008.12305-.47461 .08203-.14844.19531-.26563.33984-.35156 .14844-.08984.31055-.13476.48633-.13476 .33203,0 .56641.07422.70313.22266s.26172.37109.375.66797l1.6582,4.40039z" fill="#b3b3b3"/>
</svg>
